<?xml version="1.0" encoding="UTF-8"?>
<svg width="497px" height="244px" viewBox="0 0 497 244" version="1.1" xmlns="http://www.w3.org/2000/svg" xmlns:xlink="http://www.w3.org/1999/xlink">
    <!-- Generator: sketchtool 40.1 (33804) - http://www.bohemiancoding.com/sketch -->
    <title>766F6163-106B-474C-8D17-A3B397FA569A</title>
    <desc>Created with sketchtool.</desc>
    <defs></defs>
    <g id="Main" stroke="none" stroke-width="1" fill="none" fill-rule="evenodd">
        <g id="Home_1440" transform="translate(-760.000000, -5445.000000)" fill="#1E1E1E">
            <g id="Contacts" transform="translate(131.000000, 5445.000000)">
                <g id="Map" transform="translate(629.000000, 0.000000)">
                    <path d="M198.119347,5.95854667 L203.780413,5.95854667 L203.780413,0.29748 L198.119347,0.29748 L198.119347,5.95854667 Z M190.1948,5.95854667 L195.85492,5.95854667 L195.85492,0.29748 L190.1948,0.29748 L190.1948,5.95854667 Z M182.269307,5.95854667 L187.930373,5.95854667 L187.930373,0.29748 L182.269307,0.29748 L182.269307,5.95854667 Z M174.342867,5.95854667 L180.003933,5.95854667 L180.003933,0.29748 L174.342867,0.29748 L174.342867,5.95854667 Z M166.417373,5.95854667 L172.07844,5.95854667 L172.07844,0.29748 L166.417373,0.29748 L166.417373,5.95854667 Z M142.646573,5.95854667 L148.30764,5.95854667 L148.30764,0.29748 L142.646573,0.29748 L142.646573,5.95854667 Z M134.722027,5.95854667 L140.383093,5.95854667 L140.383093,0.29748 L134.722027,0.29748 L134.722027,5.95854667 Z M126.796533,5.95854667 L132.455707,5.95854667 L132.455707,0.29748 L126.796533,0.29748 L126.796533,5.95854667 Z M118.87104,5.95854667 L124.53116,5.95854667 L124.53116,0.29748 L118.87104,0.29748 L118.87104,5.95854667 Z M110.946493,5.95854667 L116.60756,5.95854667 L116.60756,0.29748 L110.946493,0.29748 L110.946493,5.95854667 Z M364.543347,13.8849867 L370.204413,13.8849867 L370.204413,8.22486667 L364.543347,8.22486667 L364.543347,13.8849867 Z M261.517613,13.8849867 L267.177733,13.8849867 L267.177733,8.22486667 L261.517613,8.22486667 L261.517613,13.8849867 Z M198.119347,13.8849867 L203.780413,13.8849867 L203.780413,8.22486667 L198.119347,8.22486667 L198.119347,13.8849867 Z M190.1948,13.8849867 L195.85492,13.8849867 L195.85492,8.22486667 L190.1948,8.22486667 L190.1948,13.8849867 Z M182.269307,13.8849867 L187.930373,13.8849867 L187.930373,8.22486667 L182.269307,8.22486667 L182.269307,13.8849867 Z M174.342867,13.8849867 L180.003933,13.8849867 L180.003933,8.22486667 L174.342867,8.22486667 L174.342867,13.8849867 Z M166.417373,13.8849867 L172.07844,13.8849867 L172.07844,8.22486667 L166.417373,8.22486667 L166.417373,13.8849867 Z M158.498507,13.8849867 L164.159573,13.8849867 L164.159573,8.22486667 L158.498507,8.22486667 L158.498507,13.8849867 Z M150.57112,13.8849867 L156.232187,13.8849867 L156.232187,8.22486667 L150.57112,8.22486667 L150.57112,13.8849867 Z M142.646573,13.8849867 L148.30764,13.8849867 L148.30764,8.22486667 L142.646573,8.22486667 L142.646573,13.8849867 Z M134.722027,13.8849867 L140.383093,13.8849867 L140.383093,8.22486667 L134.722027,8.22486667 L134.722027,13.8849867 Z M126.796533,13.8849867 L132.455707,13.8849867 L132.455707,8.22486667 L126.796533,8.22486667 L126.796533,13.8849867 Z M118.87104,13.8849867 L124.53116,13.8849867 L124.53116,8.22486667 L118.87104,8.22486667 L118.87104,13.8849867 Z M110.946493,13.8849867 L116.60756,13.8849867 L116.60756,8.22486667 L110.946493,8.22486667 L110.946493,13.8849867 Z M103.020053,13.8849867 L108.68112,13.8849867 L108.68112,8.22486667 L103.020053,8.22486667 L103.020053,13.8849867 Z M95.09456,13.8849867 L100.755627,13.8849867 L100.755627,8.22486667 L95.09456,8.22486667 L95.09456,13.8849867 Z M261.517613,21.81048 L267.177733,21.81048 L267.177733,16.1494133 L261.517613,16.1494133 L261.517613,21.81048 Z M253.59212,21.81048 L259.253187,21.81048 L259.253187,16.1494133 L253.59212,16.1494133 L253.59212,21.81048 Z M198.119347,21.81048 L203.780413,21.81048 L203.780413,16.1494133 L198.119347,16.1494133 L198.119347,21.81048 Z M190.1948,21.81048 L195.85492,21.81048 L195.85492,16.1494133 L190.1948,16.1494133 L190.1948,21.81048 Z M182.269307,21.81048 L187.930373,21.81048 L187.930373,16.1494133 L182.269307,16.1494133 L182.269307,21.81048 Z M174.342867,21.81048 L180.003933,21.81048 L180.003933,16.1494133 L174.342867,16.1494133 L174.342867,21.81048 Z M166.417373,21.81048 L172.07844,21.81048 L172.07844,16.1494133 L166.417373,16.1494133 L166.417373,21.81048 Z M158.498507,21.81048 L164.159573,21.81048 L164.159573,16.1494133 L158.498507,16.1494133 L158.498507,21.81048 Z M150.57112,21.81048 L156.232187,21.81048 L156.232187,16.1494133 L150.57112,16.1494133 L150.57112,21.81048 Z M142.646573,21.81048 L148.30764,21.81048 L148.30764,16.1494133 L142.646573,16.1494133 L142.646573,21.81048 Z M134.722027,21.81048 L140.383093,21.81048 L140.383093,16.1494133 L134.722027,16.1494133 L134.722027,21.81048 Z M118.87104,21.81048 L124.53116,21.81048 L124.53116,16.1494133 L118.87104,16.1494133 L118.87104,21.81048 Z M110.946493,21.81048 L116.60756,21.81048 L116.60756,16.1494133 L110.946493,16.1494133 L110.946493,21.81048 Z M95.09456,21.81048 L100.755627,21.81048 L100.755627,16.1494133 L95.09456,16.1494133 L95.09456,21.81048 Z M71.3228133,21.81048 L76.98388,21.81048 L76.98388,16.1494133 L71.3228133,16.1494133 L71.3228133,21.81048 Z M427.941613,29.7359733 L433.59984,29.7359733 L433.59984,24.0749067 L427.941613,24.0749067 L427.941613,29.7359733 Z M380.387707,29.7359733 L386.048773,29.7359733 L386.048773,24.0749067 L380.387707,24.0749067 L380.387707,29.7359733 Z M372.464107,29.7359733 L378.12328,29.7359733 L378.12328,24.0749067 L372.464107,24.0749067 L372.464107,29.7359733 Z M364.543347,29.7359733 L370.204413,29.7359733 L370.204413,24.0749067 L364.543347,24.0749067 L364.543347,29.7359733 Z M356.617853,29.7359733 L362.277973,29.7359733 L362.277973,24.0749067 L356.617853,24.0749067 L356.617853,29.7359733 Z M309.064893,29.7359733 L314.72596,29.7359733 L314.72596,24.0749067 L309.064893,24.0749067 L309.064893,29.7359733 Z M198.119347,29.7359733 L203.780413,29.7359733 L203.780413,24.0749067 L198.119347,24.0749067 L198.119347,29.7359733 Z M190.1948,29.7359733 L195.85492,29.7359733 L195.85492,24.0749067 L190.1948,24.0749067 L190.1948,29.7359733 Z M182.269307,29.7359733 L187.930373,29.7359733 L187.930373,24.0749067 L182.269307,24.0749067 L182.269307,29.7359733 Z M174.342867,29.7359733 L180.003933,29.7359733 L180.003933,24.0749067 L174.342867,24.0749067 L174.342867,29.7359733 Z M166.417373,29.7359733 L172.07844,29.7359733 L172.07844,24.0749067 L166.417373,24.0749067 L166.417373,29.7359733 Z M158.498507,29.7359733 L164.159573,29.7359733 L164.159573,24.0749067 L158.498507,24.0749067 L158.498507,29.7359733 Z M150.57112,29.7359733 L156.232187,29.7359733 L156.232187,24.0749067 L150.57112,24.0749067 L150.57112,29.7359733 Z M110.946493,29.7359733 L116.60756,29.7359733 L116.60756,24.0749067 L110.946493,24.0749067 L110.946493,29.7359733 Z M103.020053,29.7359733 L108.68112,29.7359733 L108.68112,24.0749067 L103.020053,24.0749067 L103.020053,29.7359733 Z M95.09456,29.7359733 L100.755627,29.7359733 L100.755627,24.0749067 L95.09456,24.0749067 L95.09456,29.7359733 Z M79.2492533,29.7359733 L84.91032,29.7359733 L84.91032,24.0749067 L79.2492533,24.0749067 L79.2492533,29.7359733 Z M71.3228133,29.7359733 L76.98388,29.7359733 L76.98388,24.0749067 L71.3228133,24.0749067 L71.3228133,29.7359733 Z M435.867107,37.6614667 L441.528173,37.6614667 L441.528173,32.0013467 L435.867107,32.0013467 L435.867107,37.6614667 Z M427.941613,37.6614667 L433.59984,37.6614667 L433.59984,32.0013467 L427.941613,32.0013467 L427.941613,37.6614667 Z M404.165133,37.6614667 L409.8262,37.6614667 L409.8262,32.0013467 L404.165133,32.0013467 L404.165133,37.6614667 Z M396.238693,37.6614667 L401.89976,37.6614667 L401.89976,32.0013467 L396.238693,32.0013467 L396.238693,37.6614667 Z M388.3132,37.6614667 L393.974267,37.6614667 L393.974267,32.0013467 L388.3132,32.0013467 L388.3132,37.6614667 Z M380.387707,37.6614667 L386.048773,37.6614667 L386.048773,32.0013467 L380.387707,32.0013467 L380.387707,37.6614667 Z M372.464107,37.6614667 L378.12328,37.6614667 L378.12328,32.0013467 L372.464107,32.0013467 L372.464107,37.6614667 Z M364.543347,37.6614667 L370.204413,37.6614667 L370.204413,32.0013467 L364.543347,32.0013467 L364.543347,37.6614667 Z M356.617853,37.6614667 L362.277973,37.6614667 L362.277973,32.0013467 L356.617853,32.0013467 L356.617853,37.6614667 Z M348.69236,37.6614667 L354.353427,37.6614667 L354.353427,32.0013467 L348.69236,32.0013467 L348.69236,37.6614667 Z M340.766867,37.6614667 L346.427933,37.6614667 L346.427933,32.0013467 L340.766867,32.0013467 L340.766867,37.6614667 Z M190.1948,37.6614667 L195.85492,37.6614667 L195.85492,32.0013467 L190.1948,32.0013467 L190.1948,37.6614667 Z M182.269307,37.6614667 L187.930373,37.6614667 L187.930373,32.0013467 L182.269307,32.0013467 L182.269307,37.6614667 Z M174.342867,37.6614667 L180.003933,37.6614667 L180.003933,32.0013467 L174.342867,32.0013467 L174.342867,37.6614667 Z M166.417373,37.6614667 L172.07844,37.6614667 L172.07844,32.0013467 L166.417373,32.0013467 L166.417373,37.6614667 Z M158.498507,37.6614667 L164.159573,37.6614667 L164.159573,32.0013467 L158.498507,32.0013467 L158.498507,37.6614667 Z M118.87104,37.6614667 L124.53116,37.6614667 L124.53116,32.0013467 L118.87104,32.0013467 L118.87104,37.6614667 Z M110.946493,37.6614667 L116.60756,37.6614667 L116.60756,32.0013467 L110.946493,32.0013467 L110.946493,37.6614667 Z M79.2492533,37.6614667 L84.91032,37.6614667 L84.91032,32.0013467 L79.2492533,32.0013467 L79.2492533,37.6614667 Z M71.3228133,37.6614667 L76.98388,37.6614667 L76.98388,32.0013467 L71.3228133,32.0013467 L71.3228133,37.6614667 Z M63.3982667,37.6614667 L69.0593333,37.6614667 L69.0593333,32.0013467 L63.3982667,32.0013467 L63.3982667,37.6614667 Z M55.4727733,37.6614667 L61.1328933,37.6614667 L61.1328933,32.0013467 L55.4727733,32.0013467 L55.4727733,37.6614667 Z M483.411547,45.5879067 L489.07356,45.5879067 L489.07356,39.92684 L483.411547,39.92684 L483.411547,45.5879067 Z M475.487947,45.5879067 L481.149013,45.5879067 L481.149013,39.92684 L475.487947,39.92684 L475.487947,45.5879067 Z M467.5634,45.5879067 L473.22352,45.5879067 L473.22352,39.92684 L467.5634,39.92684 L467.5634,45.5879067 Z M459.63696,45.5879067 L465.298027,45.5879067 L465.298027,39.92684 L459.63696,39.92684 L459.63696,45.5879067 Z M451.711467,45.5879067 L457.372533,45.5879067 L457.372533,39.92684 L451.711467,39.92684 L451.711467,45.5879067 Z M443.78692,45.5879067 L449.44704,45.5879067 L449.44704,39.92684 L443.78692,39.92684 L443.78692,45.5879067 Z M435.867107,45.5879067 L441.528173,45.5879067 L441.528173,39.92684 L435.867107,39.92684 L435.867107,45.5879067 Z M427.941613,45.5879067 L433.59984,45.5879067 L433.59984,39.92684 L427.941613,39.92684 L427.941613,45.5879067 Z M420.015173,45.5879067 L425.67624,45.5879067 L425.67624,39.92684 L420.015173,39.92684 L420.015173,45.5879067 Z M412.090627,45.5879067 L417.751693,45.5879067 L417.751693,39.92684 L412.090627,39.92684 L412.090627,45.5879067 Z M404.165133,45.5879067 L409.8262,45.5879067 L409.8262,39.92684 L404.165133,39.92684 L404.165133,45.5879067 Z M396.238693,45.5879067 L401.89976,45.5879067 L401.89976,39.92684 L396.238693,39.92684 L396.238693,45.5879067 Z M388.3132,45.5879067 L393.974267,45.5879067 L393.974267,39.92684 L388.3132,39.92684 L388.3132,45.5879067 Z M380.387707,45.5879067 L386.048773,45.5879067 L386.048773,39.92684 L380.387707,39.92684 L380.387707,45.5879067 Z M372.464107,45.5879067 L378.12328,45.5879067 L378.12328,39.92684 L372.464107,39.92684 L372.464107,45.5879067 Z M364.543347,45.5879067 L370.204413,45.5879067 L370.204413,39.92684 L364.543347,39.92684 L364.543347,45.5879067 Z M356.617853,45.5879067 L362.277973,45.5879067 L362.277973,39.92684 L356.617853,39.92684 L356.617853,45.5879067 Z M348.69236,45.5879067 L354.353427,45.5879067 L354.353427,39.92684 L348.69236,39.92684 L348.69236,45.5879067 Z M340.766867,45.5879067 L346.427933,45.5879067 L346.427933,39.92684 L340.766867,39.92684 L340.766867,45.5879067 Z M332.841373,45.5879067 L338.50244,45.5879067 L338.50244,39.92684 L332.841373,39.92684 L332.841373,45.5879067 Z M316.990387,45.5879067 L322.651453,45.5879067 L322.651453,39.92684 L316.990387,39.92684 L316.990387,45.5879067 Z M277.366707,45.5879067 L283.02872,45.5879067 L283.02872,39.92684 L277.366707,39.92684 L277.366707,45.5879067 Z M269.443107,45.5879067 L275.104173,45.5879067 L275.104173,39.92684 L269.443107,39.92684 L269.443107,45.5879067 Z M261.517613,45.5879067 L267.177733,45.5879067 L267.177733,39.92684 L261.517613,39.92684 L261.517613,45.5879067 Z M253.59212,45.5879067 L259.253187,45.5879067 L259.253187,39.92684 L253.59212,39.92684 L253.59212,45.5879067 Z M190.1948,45.5879067 L195.85492,45.5879067 L195.85492,39.92684 L190.1948,39.92684 L190.1948,45.5879067 Z M182.269307,45.5879067 L187.930373,45.5879067 L187.930373,39.92684 L182.269307,39.92684 L182.269307,45.5879067 Z M174.342867,45.5879067 L180.003933,45.5879067 L180.003933,39.92684 L174.342867,39.92684 L174.342867,45.5879067 Z M166.417373,45.5879067 L172.07844,45.5879067 L172.07844,39.92684 L166.417373,39.92684 L166.417373,45.5879067 Z M158.498507,45.5879067 L164.159573,45.5879067 L164.159573,39.92684 L158.498507,39.92684 L158.498507,45.5879067 Z M126.796533,45.5879067 L132.455707,45.5879067 L132.455707,39.92684 L126.796533,39.92684 L126.796533,45.5879067 Z M110.946493,45.5879067 L116.60756,45.5879067 L116.60756,39.92684 L110.946493,39.92684 L110.946493,45.5879067 Z M103.020053,45.5879067 L108.68112,45.5879067 L108.68112,39.92684 L103.020053,39.92684 L103.020053,45.5879067 Z M95.09456,45.5879067 L100.755627,45.5879067 L100.755627,39.92684 L95.09456,39.92684 L95.09456,45.5879067 Z M79.2492533,45.5879067 L84.91032,45.5879067 L84.91032,39.92684 L79.2492533,39.92684 L79.2492533,45.5879067 Z M71.3228133,45.5879067 L76.98388,45.5879067 L76.98388,39.92684 L71.3228133,39.92684 L71.3228133,45.5879067 Z M63.3982667,45.5879067 L69.0593333,45.5879067 L69.0593333,39.92684 L63.3982667,39.92684 L63.3982667,45.5879067 Z M55.4727733,45.5879067 L61.1328933,45.5879067 L61.1328933,39.92684 L55.4727733,39.92684 L55.4727733,45.5879067 Z M47.5482267,45.5879067 L53.2074,45.5879067 L53.2074,39.92684 L47.5482267,39.92684 L47.5482267,45.5879067 Z M39.6217867,45.5879067 L45.2828533,45.5879067 L45.2828533,39.92684 L39.6217867,39.92684 L39.6217867,45.5879067 Z M31.69724,45.5879067 L37.35736,45.5879067 L37.35736,39.92684 L31.69724,39.92684 L31.69724,45.5879067 Z M23.77648,45.5879067 L29.4366,45.5879067 L29.4366,39.92684 L23.77648,39.92684 L23.77648,45.5879067 Z M15.8519333,45.5879067 L21.5111067,45.5879067 L21.5111067,39.92684 L15.8519333,39.92684 L15.8519333,45.5879067 Z M7.92549333,45.5879067 L13.58656,45.5879067 L13.58656,39.92684 L7.92549333,39.92684 L7.92549333,45.5879067 Z M0,45.5879067 L5.66106667,45.5879067 L5.66106667,39.92684 L0,39.92684 L0,45.5879067 Z M491.338933,53.50772 L497,53.50772 L497,47.8466533 L491.338933,47.8466533 L491.338933,53.50772 Z M483.411547,53.50772 L489.07356,53.50772 L489.07356,47.8466533 L483.411547,47.8466533 L483.411547,53.50772 Z M475.487947,53.50772 L481.149013,53.50772 L481.149013,47.8466533 L475.487947,47.8466533 L475.487947,53.50772 Z M467.5634,53.50772 L473.22352,53.50772 L473.22352,47.8466533 L467.5634,47.8466533 L467.5634,53.50772 Z M459.63696,53.50772 L465.298027,53.50772 L465.298027,47.8466533 L459.63696,47.8466533 L459.63696,53.50772 Z M451.711467,53.50772 L457.372533,53.50772 L457.372533,47.8466533 L451.711467,47.8466533 L451.711467,53.50772 Z M443.78692,53.50772 L449.44704,53.50772 L449.44704,47.8466533 L443.78692,47.8466533 L443.78692,53.50772 Z M435.867107,53.50772 L441.528173,53.50772 L441.528173,47.8466533 L435.867107,47.8466533 L435.867107,53.50772 Z M427.941613,53.50772 L433.59984,53.50772 L433.59984,47.8466533 L427.941613,47.8466533 L427.941613,53.50772 Z M420.015173,53.50772 L425.67624,53.50772 L425.67624,47.8466533 L420.015173,47.8466533 L420.015173,53.50772 Z M412.090627,53.50772 L417.751693,53.50772 L417.751693,47.8466533 L412.090627,47.8466533 L412.090627,53.50772 Z M404.165133,53.50772 L409.8262,53.50772 L409.8262,47.8466533 L404.165133,47.8466533 L404.165133,53.50772 Z M396.238693,53.50772 L401.89976,53.50772 L401.89976,47.8466533 L396.238693,47.8466533 L396.238693,53.50772 Z M388.3132,53.50772 L393.974267,53.50772 L393.974267,47.8466533 L388.3132,47.8466533 L388.3132,53.50772 Z M380.387707,53.50772 L386.048773,53.50772 L386.048773,47.8466533 L380.387707,47.8466533 L380.387707,53.50772 Z M372.464107,53.50772 L378.12328,53.50772 L378.12328,47.8466533 L372.464107,47.8466533 L372.464107,53.50772 Z M364.543347,53.50772 L370.204413,53.50772 L370.204413,47.8466533 L364.543347,47.8466533 L364.543347,53.50772 Z M356.617853,53.50772 L362.277973,53.50772 L362.277973,47.8466533 L356.617853,47.8466533 L356.617853,53.50772 Z M348.69236,53.50772 L354.353427,53.50772 L354.353427,47.8466533 L348.69236,47.8466533 L348.69236,53.50772 Z M340.766867,53.50772 L346.427933,53.50772 L346.427933,47.8466533 L340.766867,47.8466533 L340.766867,53.50772 Z M332.841373,53.50772 L338.50244,53.50772 L338.50244,47.8466533 L332.841373,47.8466533 L332.841373,53.50772 Z M324.914933,53.50772 L330.576,53.50772 L330.576,47.8466533 L324.914933,47.8466533 L324.914933,53.50772 Z M316.990387,53.50772 L322.651453,53.50772 L322.651453,47.8466533 L316.990387,47.8466533 L316.990387,53.50772 Z M309.064893,53.50772 L314.72596,53.50772 L314.72596,47.8466533 L309.064893,47.8466533 L309.064893,53.50772 Z M301.140347,53.50772 L306.79952,53.50772 L306.79952,47.8466533 L301.140347,47.8466533 L301.140347,53.50772 Z M293.21864,53.50772 L298.880653,53.50772 L298.880653,47.8466533 L293.21864,47.8466533 L293.21864,53.50772 Z M277.366707,53.50772 L283.02872,53.50772 L283.02872,47.8466533 L277.366707,47.8466533 L277.366707,53.50772 Z M269.443107,53.50772 L275.104173,53.50772 L275.104173,47.8466533 L269.443107,47.8466533 L269.443107,53.50772 Z M253.59212,53.50772 L259.253187,53.50772 L259.253187,47.8466533 L253.59212,47.8466533 L253.59212,53.50772 Z M206.04484,53.50772 L211.70496,53.50772 L211.70496,47.8466533 L206.04484,47.8466533 L206.04484,53.50772 Z M198.119347,53.50772 L203.780413,53.50772 L203.780413,47.8466533 L198.119347,47.8466533 L198.119347,53.50772 Z M174.342867,53.50772 L180.003933,53.50772 L180.003933,47.8466533 L174.342867,47.8466533 L174.342867,53.50772 Z M166.417373,53.50772 L172.07844,53.50772 L172.07844,47.8466533 L166.417373,47.8466533 L166.417373,53.50772 Z M158.498507,53.50772 L164.159573,53.50772 L164.159573,47.8466533 L158.498507,47.8466533 L158.498507,53.50772 Z M134.722027,53.50772 L140.383093,53.50772 L140.383093,47.8466533 L134.722027,47.8466533 L134.722027,53.50772 Z M126.796533,53.50772 L132.455707,53.50772 L132.455707,47.8466533 L126.796533,47.8466533 L126.796533,53.50772 Z M110.946493,53.50772 L116.60756,53.50772 L116.60756,47.8466533 L110.946493,47.8466533 L110.946493,53.50772 Z M103.020053,53.50772 L108.68112,53.50772 L108.68112,47.8466533 L103.020053,47.8466533 L103.020053,53.50772 Z M95.09456,53.50772 L100.755627,53.50772 L100.755627,47.8466533 L95.09456,47.8466533 L95.09456,53.50772 Z M87.1738,53.50772 L92.83392,53.50772 L92.83392,47.8466533 L87.1738,47.8466533 L87.1738,53.50772 Z M79.2492533,53.50772 L84.91032,53.50772 L84.91032,47.8466533 L79.2492533,47.8466533 L79.2492533,53.50772 Z M71.3228133,53.50772 L76.98388,53.50772 L76.98388,47.8466533 L71.3228133,47.8466533 L71.3228133,53.50772 Z M63.3982667,53.50772 L69.0593333,53.50772 L69.0593333,47.8466533 L63.3982667,47.8466533 L63.3982667,53.50772 Z M55.4727733,53.50772 L61.1328933,53.50772 L61.1328933,47.8466533 L55.4727733,47.8466533 L55.4727733,53.50772 Z M47.5482267,53.50772 L53.2074,53.50772 L53.2074,47.8466533 L47.5482267,47.8466533 L47.5482267,53.50772 Z M39.6217867,53.50772 L45.2828533,53.50772 L45.2828533,47.8466533 L39.6217867,47.8466533 L39.6217867,53.50772 Z M31.69724,53.50772 L37.35736,53.50772 L37.35736,47.8466533 L31.69724,47.8466533 L31.69724,53.50772 Z M23.77648,53.50772 L29.4366,53.50772 L29.4366,47.8466533 L23.77648,47.8466533 L23.77648,53.50772 Z M15.8519333,53.50772 L21.5111067,53.50772 L21.5111067,47.8466533 L15.8519333,47.8466533 L15.8519333,53.50772 Z M7.92549333,53.50772 L13.58656,53.50772 L13.58656,47.8466533 L7.92549333,47.8466533 L7.92549333,53.50772 Z M0,53.50772 L5.66106667,53.50772 L5.66106667,47.8466533 L0,47.8466533 L0,53.50772 Z M475.487947,61.4332133 L481.149013,61.4332133 L481.149013,55.7721467 L475.487947,55.7721467 L475.487947,61.4332133 Z M467.5634,61.4332133 L473.22352,61.4332133 L473.22352,55.7721467 L467.5634,55.7721467 L467.5634,61.4332133 Z M451.711467,61.4332133 L457.372533,61.4332133 L457.372533,55.7721467 L451.711467,55.7721467 L451.711467,61.4332133 Z M443.78692,61.4332133 L449.44704,61.4332133 L449.44704,55.7721467 L443.78692,55.7721467 L443.78692,61.4332133 Z M435.867107,61.4332133 L441.528173,61.4332133 L441.528173,55.7721467 L435.867107,55.7721467 L435.867107,61.4332133 Z M427.941613,61.4332133 L433.59984,61.4332133 L433.59984,55.7721467 L427.941613,55.7721467 L427.941613,61.4332133 Z M420.015173,61.4332133 L425.67624,61.4332133 L425.67624,55.7721467 L420.015173,55.7721467 L420.015173,61.4332133 Z M412.090627,61.4332133 L417.751693,61.4332133 L417.751693,55.7721467 L412.090627,55.7721467 L412.090627,61.4332133 Z M404.165133,61.4332133 L409.8262,61.4332133 L409.8262,55.7721467 L404.165133,55.7721467 L404.165133,61.4332133 Z M396.238693,61.4332133 L401.89976,61.4332133 L401.89976,55.7721467 L396.238693,55.7721467 L396.238693,61.4332133 Z M388.3132,61.4332133 L393.974267,61.4332133 L393.974267,55.7721467 L388.3132,55.7721467 L388.3132,61.4332133 Z M380.387707,61.4332133 L386.048773,61.4332133 L386.048773,55.7721467 L380.387707,55.7721467 L380.387707,61.4332133 Z M372.464107,61.4332133 L378.12328,61.4332133 L378.12328,55.7721467 L372.464107,55.7721467 L372.464107,61.4332133 Z M364.543347,61.4332133 L370.204413,61.4332133 L370.204413,55.7721467 L364.543347,55.7721467 L364.543347,61.4332133 Z M356.617853,61.4332133 L362.277973,61.4332133 L362.277973,55.7721467 L356.617853,55.7721467 L356.617853,61.4332133 Z M348.69236,61.4332133 L354.353427,61.4332133 L354.353427,55.7721467 L348.69236,55.7721467 L348.69236,61.4332133 Z M340.766867,61.4332133 L346.427933,61.4332133 L346.427933,55.7721467 L340.766867,55.7721467 L340.766867,61.4332133 Z M332.841373,61.4332133 L338.50244,61.4332133 L338.50244,55.7721467 L332.841373,55.7721467 L332.841373,61.4332133 Z M324.914933,61.4332133 L330.576,61.4332133 L330.576,55.7721467 L324.914933,55.7721467 L324.914933,61.4332133 Z M316.990387,61.4332133 L322.651453,61.4332133 L322.651453,55.7721467 L316.990387,55.7721467 L316.990387,61.4332133 Z M309.064893,61.4332133 L314.72596,61.4332133 L314.72596,55.7721467 L309.064893,55.7721467 L309.064893,61.4332133 Z M301.140347,61.4332133 L306.79952,61.4332133 L306.79952,55.7721467 L301.140347,55.7721467 L301.140347,61.4332133 Z M293.21864,61.4332133 L298.880653,61.4332133 L298.880653,55.7721467 L293.21864,55.7721467 L293.21864,61.4332133 Z M285.294093,61.4332133 L290.95516,61.4332133 L290.95516,55.7721467 L285.294093,55.7721467 L285.294093,61.4332133 Z M277.366707,61.4332133 L283.02872,61.4332133 L283.02872,55.7721467 L277.366707,55.7721467 L277.366707,61.4332133 Z M269.443107,61.4332133 L275.104173,61.4332133 L275.104173,55.7721467 L269.443107,55.7721467 L269.443107,61.4332133 Z M261.517613,61.4332133 L267.177733,61.4332133 L267.177733,55.7721467 L261.517613,55.7721467 L261.517613,61.4332133 Z M253.59212,61.4332133 L259.253187,61.4332133 L259.253187,55.7721467 L253.59212,55.7721467 L253.59212,61.4332133 Z M245.666627,61.4332133 L251.327693,61.4332133 L251.327693,55.7721467 L245.666627,55.7721467 L245.666627,61.4332133 Z M237.74208,61.4332133 L243.403147,61.4332133 L243.403147,55.7721467 L237.74208,55.7721467 L237.74208,61.4332133 Z M166.417373,61.4332133 L172.07844,61.4332133 L172.07844,55.7721467 L166.417373,55.7721467 L166.417373,61.4332133 Z M126.796533,61.4332133 L132.455707,61.4332133 L132.455707,55.7721467 L126.796533,55.7721467 L126.796533,61.4332133 Z M118.87104,61.4332133 L124.53116,61.4332133 L124.53116,55.7721467 L118.87104,55.7721467 L118.87104,61.4332133 Z M95.09456,61.4332133 L100.755627,61.4332133 L100.755627,55.7721467 L95.09456,55.7721467 L95.09456,61.4332133 Z M87.1738,61.4332133 L92.83392,61.4332133 L92.83392,55.7721467 L87.1738,55.7721467 L87.1738,61.4332133 Z M79.2492533,61.4332133 L84.91032,61.4332133 L84.91032,55.7721467 L79.2492533,55.7721467 L79.2492533,61.4332133 Z M71.3228133,61.4332133 L76.98388,61.4332133 L76.98388,55.7721467 L71.3228133,55.7721467 L71.3228133,61.4332133 Z M63.3982667,61.4332133 L69.0593333,61.4332133 L69.0593333,55.7721467 L63.3982667,55.7721467 L63.3982667,61.4332133 Z M55.4727733,61.4332133 L61.1328933,61.4332133 L61.1328933,55.7721467 L55.4727733,55.7721467 L55.4727733,61.4332133 Z M47.5482267,61.4332133 L53.2074,61.4332133 L53.2074,55.7721467 L47.5482267,55.7721467 L47.5482267,61.4332133 Z M39.6217867,61.4332133 L45.2828533,61.4332133 L45.2828533,55.7721467 L39.6217867,55.7721467 L39.6217867,61.4332133 Z M31.69724,61.4332133 L37.35736,61.4332133 L37.35736,55.7721467 L31.69724,55.7721467 L31.69724,61.4332133 Z M23.77648,61.4332133 L29.4366,61.4332133 L29.4366,55.7721467 L23.77648,55.7721467 L23.77648,61.4332133 Z M15.8519333,61.4332133 L21.5111067,61.4332133 L21.5111067,55.7721467 L15.8519333,55.7721467 L15.8519333,61.4332133 Z M7.92549333,61.4332133 L13.58656,61.4332133 L13.58656,55.7721467 L7.92549333,55.7721467 L7.92549333,61.4332133 Z M0,61.4332133 L5.66106667,61.4332133 L5.66106667,55.7721467 L0,55.7721467 L0,61.4332133 Z M451.711467,69.35776 L457.372533,69.35776 L457.372533,63.69764 L451.711467,63.69764 L451.711467,69.35776 Z M420.015173,69.35776 L425.67624,69.35776 L425.67624,63.69764 L420.015173,63.69764 L420.015173,69.35776 Z M412.090627,69.35776 L417.751693,69.35776 L417.751693,63.69764 L412.090627,63.69764 L412.090627,69.35776 Z M404.165133,69.35776 L409.8262,69.35776 L409.8262,63.69764 L404.165133,63.69764 L404.165133,69.35776 Z M396.238693,69.35776 L401.89976,69.35776 L401.89976,63.69764 L396.238693,63.69764 L396.238693,69.35776 Z M388.3132,69.35776 L393.974267,69.35776 L393.974267,63.69764 L388.3132,63.69764 L388.3132,69.35776 Z M380.387707,69.35776 L386.048773,69.35776 L386.048773,63.69764 L380.387707,63.69764 L380.387707,69.35776 Z M372.464107,69.35776 L378.12328,69.35776 L378.12328,63.69764 L372.464107,63.69764 L372.464107,69.35776 Z M364.543347,69.35776 L370.204413,69.35776 L370.204413,63.69764 L364.543347,63.69764 L364.543347,69.35776 Z M356.617853,69.35776 L362.277973,69.35776 L362.277973,63.69764 L356.617853,63.69764 L356.617853,69.35776 Z M348.69236,69.35776 L354.353427,69.35776 L354.353427,63.69764 L348.69236,63.69764 L348.69236,69.35776 Z M340.766867,69.35776 L346.427933,69.35776 L346.427933,63.69764 L340.766867,63.69764 L340.766867,69.35776 Z M332.841373,69.35776 L338.50244,69.35776 L338.50244,63.69764 L332.841373,63.69764 L332.841373,69.35776 Z M324.914933,69.35776 L330.576,69.35776 L330.576,63.69764 L324.914933,63.69764 L324.914933,69.35776 Z M316.990387,69.35776 L322.651453,69.35776 L322.651453,63.69764 L316.990387,63.69764 L316.990387,69.35776 Z M309.064893,69.35776 L314.72596,69.35776 L314.72596,63.69764 L309.064893,63.69764 L309.064893,69.35776 Z M301.140347,69.35776 L306.79952,69.35776 L306.79952,63.69764 L301.140347,63.69764 L301.140347,69.35776 Z M293.21864,69.35776 L298.880653,69.35776 L298.880653,63.69764 L293.21864,63.69764 L293.21864,69.35776 Z M285.294093,69.35776 L290.95516,69.35776 L290.95516,63.69764 L285.294093,63.69764 L285.294093,69.35776 Z M277.366707,69.35776 L283.02872,69.35776 L283.02872,63.69764 L277.366707,63.69764 L277.366707,69.35776 Z M269.443107,69.35776 L275.104173,69.35776 L275.104173,63.69764 L269.443107,63.69764 L269.443107,69.35776 Z M253.59212,69.35776 L259.253187,69.35776 L259.253187,63.69764 L253.59212,63.69764 L253.59212,69.35776 Z M142.646573,69.35776 L148.30764,69.35776 L148.30764,63.69764 L142.646573,63.69764 L142.646573,69.35776 Z M134.722027,69.35776 L140.383093,69.35776 L140.383093,63.69764 L134.722027,63.69764 L134.722027,69.35776 Z M126.796533,69.35776 L132.455707,69.35776 L132.455707,63.69764 L126.796533,63.69764 L126.796533,69.35776 Z M95.09456,69.35776 L100.755627,69.35776 L100.755627,63.69764 L95.09456,63.69764 L95.09456,69.35776 Z M87.1738,69.35776 L92.83392,69.35776 L92.83392,63.69764 L87.1738,63.69764 L87.1738,69.35776 Z M79.2492533,69.35776 L84.91032,69.35776 L84.91032,63.69764 L79.2492533,63.69764 L79.2492533,69.35776 Z M71.3228133,69.35776 L76.98388,69.35776 L76.98388,63.69764 L71.3228133,63.69764 L71.3228133,69.35776 Z M63.3982667,69.35776 L69.0593333,69.35776 L69.0593333,63.69764 L63.3982667,63.69764 L63.3982667,69.35776 Z M55.4727733,69.35776 L61.1328933,69.35776 L61.1328933,63.69764 L55.4727733,63.69764 L55.4727733,69.35776 Z M47.5482267,69.35776 L53.2074,69.35776 L53.2074,63.69764 L47.5482267,63.69764 L47.5482267,69.35776 Z M39.6217867,69.35776 L45.2828533,69.35776 L45.2828533,63.69764 L39.6217867,63.69764 L39.6217867,69.35776 Z M451.711467,77.2842 L457.372533,77.2842 L457.372533,71.62408 L451.711467,71.62408 L451.711467,77.2842 Z M420.015173,77.2842 L425.67624,77.2842 L425.67624,71.62408 L420.015173,71.62408 L420.015173,77.2842 Z M412.090627,77.2842 L417.751693,77.2842 L417.751693,71.62408 L412.090627,71.62408 L412.090627,77.2842 Z M404.165133,77.2842 L409.8262,77.2842 L409.8262,71.62408 L404.165133,71.62408 L404.165133,77.2842 Z M396.238693,77.2842 L401.89976,77.2842 L401.89976,71.62408 L396.238693,71.62408 L396.238693,77.2842 Z M388.3132,77.2842 L393.974267,77.2842 L393.974267,71.62408 L388.3132,71.62408 L388.3132,77.2842 Z M380.387707,77.2842 L386.048773,77.2842 L386.048773,71.62408 L380.387707,71.62408 L380.387707,77.2842 Z M372.464107,77.2842 L378.12328,77.2842 L378.12328,71.62408 L372.464107,71.62408 L372.464107,77.2842 Z M364.543347,77.2842 L370.204413,77.2842 L370.204413,71.62408 L364.543347,71.62408 L364.543347,77.2842 Z M356.617853,77.2842 L362.277973,77.2842 L362.277973,71.62408 L356.617853,71.62408 L356.617853,77.2842 Z M348.69236,77.2842 L354.353427,77.2842 L354.353427,71.62408 L348.69236,71.62408 L348.69236,77.2842 Z M340.766867,77.2842 L346.427933,77.2842 L346.427933,71.62408 L340.766867,71.62408 L340.766867,77.2842 Z M332.841373,77.2842 L338.50244,77.2842 L338.50244,71.62408 L332.841373,71.62408 L332.841373,77.2842 Z M324.914933,77.2842 L330.576,77.2842 L330.576,71.62408 L324.914933,71.62408 L324.914933,77.2842 Z M316.990387,77.2842 L322.651453,77.2842 L322.651453,71.62408 L316.990387,71.62408 L316.990387,77.2842 Z M309.064893,77.2842 L314.72596,77.2842 L314.72596,71.62408 L309.064893,71.62408 L309.064893,77.2842 Z M301.140347,77.2842 L306.79952,77.2842 L306.79952,71.62408 L301.140347,71.62408 L301.140347,77.2842 Z M293.21864,77.2842 L298.880653,77.2842 L298.880653,71.62408 L293.21864,71.62408 L293.21864,77.2842 Z M285.294093,77.2842 L290.95516,77.2842 L290.95516,71.62408 L285.294093,71.62408 L285.294093,77.2842 Z M277.366707,77.2842 L283.02872,77.2842 L283.02872,71.62408 L277.366707,71.62408 L277.366707,77.2842 Z M269.443107,77.2842 L275.104173,77.2842 L275.104173,71.62408 L269.443107,71.62408 L269.443107,77.2842 Z M261.517613,77.2842 L267.177733,77.2842 L267.177733,71.62408 L261.517613,71.62408 L261.517613,77.2842 Z M253.59212,77.2842 L259.253187,77.2842 L259.253187,71.62408 L253.59212,71.62408 L253.59212,77.2842 Z M245.666627,77.2842 L251.327693,77.2842 L251.327693,71.62408 L245.666627,71.62408 L245.666627,77.2842 Z M229.81564,77.2842 L235.476707,77.2842 L235.476707,71.62408 L229.81564,71.62408 L229.81564,77.2842 Z M221.896773,77.2842 L227.555947,77.2842 L227.555947,71.62408 L221.896773,71.62408 L221.896773,77.2842 Z M142.646573,77.2842 L148.30764,77.2842 L148.30764,71.62408 L142.646573,71.62408 L142.646573,77.2842 Z M134.722027,77.2842 L140.383093,77.2842 L140.383093,71.62408 L134.722027,71.62408 L134.722027,77.2842 Z M126.796533,77.2842 L132.455707,77.2842 L132.455707,71.62408 L126.796533,71.62408 L126.796533,77.2842 Z M118.87104,77.2842 L124.53116,77.2842 L124.53116,71.62408 L118.87104,71.62408 L118.87104,77.2842 Z M110.946493,77.2842 L116.60756,77.2842 L116.60756,71.62408 L110.946493,71.62408 L110.946493,77.2842 Z M103.020053,77.2842 L108.68112,77.2842 L108.68112,71.62408 L103.020053,71.62408 L103.020053,77.2842 Z M95.09456,77.2842 L100.755627,77.2842 L100.755627,71.62408 L95.09456,71.62408 L95.09456,77.2842 Z M87.1738,77.2842 L92.83392,77.2842 L92.83392,71.62408 L87.1738,71.62408 L87.1738,77.2842 Z M79.2492533,77.2842 L84.91032,77.2842 L84.91032,71.62408 L79.2492533,71.62408 L79.2492533,77.2842 Z M71.3228133,77.2842 L76.98388,77.2842 L76.98388,71.62408 L71.3228133,71.62408 L71.3228133,77.2842 Z M63.3982667,77.2842 L69.0593333,77.2842 L69.0593333,71.62408 L63.3982667,71.62408 L63.3982667,77.2842 Z M55.4727733,77.2842 L61.1328933,77.2842 L61.1328933,71.62408 L55.4727733,71.62408 L55.4727733,77.2842 Z M47.5482267,77.2842 L53.2074,77.2842 L53.2074,71.62408 L47.5482267,71.62408 L47.5482267,77.2842 Z M420.015173,85.2087467 L425.67624,85.2087467 L425.67624,79.54768 L420.015173,79.54768 L420.015173,85.2087467 Z M412.090627,85.2087467 L417.751693,85.2087467 L417.751693,79.54768 L412.090627,79.54768 L412.090627,85.2087467 Z M404.165133,85.2087467 L409.8262,85.2087467 L409.8262,79.54768 L404.165133,79.54768 L404.165133,85.2087467 Z M396.238693,85.2087467 L401.89976,85.2087467 L401.89976,79.54768 L396.238693,79.54768 L396.238693,85.2087467 Z M388.3132,85.2087467 L393.974267,85.2087467 L393.974267,79.54768 L388.3132,79.54768 L388.3132,85.2087467 Z M380.387707,85.2087467 L386.048773,85.2087467 L386.048773,79.54768 L380.387707,79.54768 L380.387707,85.2087467 Z M372.464107,85.2087467 L378.12328,85.2087467 L378.12328,79.54768 L372.464107,79.54768 L372.464107,85.2087467 Z M364.543347,85.2087467 L370.204413,85.2087467 L370.204413,79.54768 L364.543347,79.54768 L364.543347,85.2087467 Z M356.617853,85.2087467 L362.277973,85.2087467 L362.277973,79.54768 L356.617853,79.54768 L356.617853,85.2087467 Z M348.69236,85.2087467 L354.353427,85.2087467 L354.353427,79.54768 L348.69236,79.54768 L348.69236,85.2087467 Z M340.766867,85.2087467 L346.427933,85.2087467 L346.427933,79.54768 L340.766867,79.54768 L340.766867,85.2087467 Z M332.841373,85.2087467 L338.50244,85.2087467 L338.50244,79.54768 L332.841373,79.54768 L332.841373,85.2087467 Z M324.914933,85.2087467 L330.576,85.2087467 L330.576,79.54768 L324.914933,79.54768 L324.914933,85.2087467 Z M316.990387,85.2087467 L322.651453,85.2087467 L322.651453,79.54768 L316.990387,79.54768 L316.990387,85.2087467 Z M309.064893,85.2087467 L314.72596,85.2087467 L314.72596,79.54768 L309.064893,79.54768 L309.064893,85.2087467 Z M301.140347,85.2087467 L306.79952,85.2087467 L306.79952,79.54768 L301.140347,79.54768 L301.140347,85.2087467 Z M293.21864,85.2087467 L298.880653,85.2087467 L298.880653,79.54768 L293.21864,79.54768 L293.21864,85.2087467 Z M285.294093,85.2087467 L290.95516,85.2087467 L290.95516,79.54768 L285.294093,79.54768 L285.294093,85.2087467 Z M277.366707,85.2087467 L283.02872,85.2087467 L283.02872,79.54768 L277.366707,79.54768 L277.366707,85.2087467 Z M269.443107,85.2087467 L275.104173,85.2087467 L275.104173,79.54768 L269.443107,79.54768 L269.443107,85.2087467 Z M261.517613,85.2087467 L267.177733,85.2087467 L267.177733,79.54768 L261.517613,79.54768 L261.517613,85.2087467 Z M253.59212,85.2087467 L259.253187,85.2087467 L259.253187,79.54768 L253.59212,79.54768 L253.59212,85.2087467 Z M245.666627,85.2087467 L251.327693,85.2087467 L251.327693,79.54768 L245.666627,79.54768 L245.666627,85.2087467 Z M237.74208,85.2087467 L243.403147,85.2087467 L243.403147,79.54768 L237.74208,79.54768 L237.74208,85.2087467 Z M150.57112,85.2087467 L156.232187,85.2087467 L156.232187,79.54768 L150.57112,79.54768 L150.57112,85.2087467 Z M134.722027,85.2087467 L140.383093,85.2087467 L140.383093,79.54768 L134.722027,79.54768 L134.722027,85.2087467 Z M126.796533,85.2087467 L132.455707,85.2087467 L132.455707,79.54768 L126.796533,79.54768 L126.796533,85.2087467 Z M118.87104,85.2087467 L124.53116,85.2087467 L124.53116,79.54768 L118.87104,79.54768 L118.87104,85.2087467 Z M110.946493,85.2087467 L116.60756,85.2087467 L116.60756,79.54768 L110.946493,79.54768 L110.946493,85.2087467 Z M103.020053,85.2087467 L108.68112,85.2087467 L108.68112,79.54768 L103.020053,79.54768 L103.020053,85.2087467 Z M95.09456,85.2087467 L100.755627,85.2087467 L100.755627,79.54768 L95.09456,79.54768 L95.09456,85.2087467 Z M87.1738,85.2087467 L92.83392,85.2087467 L92.83392,79.54768 L87.1738,79.54768 L87.1738,85.2087467 Z M79.2492533,85.2087467 L84.91032,85.2087467 L84.91032,79.54768 L79.2492533,79.54768 L79.2492533,85.2087467 Z M71.3228133,85.2087467 L76.98388,85.2087467 L76.98388,79.54768 L71.3228133,79.54768 L71.3228133,85.2087467 Z M63.3982667,85.2087467 L69.0593333,85.2087467 L69.0593333,79.54768 L63.3982667,79.54768 L63.3982667,85.2087467 Z M55.4727733,85.2087467 L61.1328933,85.2087467 L61.1328933,79.54768 L55.4727733,79.54768 L55.4727733,85.2087467 Z M420.015173,93.13424 L425.67624,93.13424 L425.67624,87.4731733 L420.015173,87.4731733 L420.015173,93.13424 Z M412.090627,93.13424 L417.751693,93.13424 L417.751693,87.4731733 L412.090627,87.4731733 L412.090627,93.13424 Z M404.165133,93.13424 L409.8262,93.13424 L409.8262,87.4731733 L404.165133,87.4731733 L404.165133,93.13424 Z M396.238693,93.13424 L401.89976,93.13424 L401.89976,87.4731733 L396.238693,87.4731733 L396.238693,93.13424 Z M388.3132,93.13424 L393.974267,93.13424 L393.974267,87.4731733 L388.3132,87.4731733 L388.3132,93.13424 Z M380.387707,93.13424 L386.048773,93.13424 L386.048773,87.4731733 L380.387707,87.4731733 L380.387707,93.13424 Z M372.464107,93.13424 L378.12328,93.13424 L378.12328,87.4731733 L372.464107,87.4731733 L372.464107,93.13424 Z M364.543347,93.13424 L370.204413,93.13424 L370.204413,87.4731733 L364.543347,87.4731733 L364.543347,93.13424 Z M356.617853,93.13424 L362.277973,93.13424 L362.277973,87.4731733 L356.617853,87.4731733 L356.617853,93.13424 Z M348.69236,93.13424 L354.353427,93.13424 L354.353427,87.4731733 L348.69236,87.4731733 L348.69236,93.13424 Z M340.766867,93.13424 L346.427933,93.13424 L346.427933,87.4731733 L340.766867,87.4731733 L340.766867,93.13424 Z M332.841373,93.13424 L338.50244,93.13424 L338.50244,87.4731733 L332.841373,87.4731733 L332.841373,93.13424 Z M324.914933,93.13424 L330.576,93.13424 L330.576,87.4731733 L324.914933,87.4731733 L324.914933,93.13424 Z M316.990387,93.13424 L322.651453,93.13424 L322.651453,87.4731733 L316.990387,87.4731733 L316.990387,93.13424 Z M309.064893,93.13424 L314.72596,93.13424 L314.72596,87.4731733 L309.064893,87.4731733 L309.064893,93.13424 Z M293.21864,93.13424 L298.880653,93.13424 L298.880653,87.4731733 L293.21864,87.4731733 L293.21864,93.13424 Z M285.294093,93.13424 L290.95516,93.13424 L290.95516,87.4731733 L285.294093,87.4731733 L285.294093,93.13424 Z M277.366707,93.13424 L283.02872,93.13424 L283.02872,87.4731733 L277.366707,87.4731733 L277.366707,93.13424 Z M269.443107,93.13424 L275.104173,93.13424 L275.104173,87.4731733 L269.443107,87.4731733 L269.443107,93.13424 Z M261.517613,93.13424 L267.177733,93.13424 L267.177733,87.4731733 L261.517613,87.4731733 L261.517613,93.13424 Z M253.59212,93.13424 L259.253187,93.13424 L259.253187,87.4731733 L253.59212,87.4731733 L253.59212,93.13424 Z M245.666627,93.13424 L251.327693,93.13424 L251.327693,87.4731733 L245.666627,87.4731733 L245.666627,93.13424 Z M237.74208,93.13424 L243.403147,93.13424 L243.403147,87.4731733 L237.74208,87.4731733 L237.74208,93.13424 Z M229.81564,93.13424 L235.476707,93.13424 L235.476707,87.4731733 L229.81564,87.4731733 L229.81564,93.13424 Z M142.646573,93.13424 L148.30764,93.13424 L148.30764,87.4731733 L142.646573,87.4731733 L142.646573,93.13424 Z M134.722027,93.13424 L140.383093,93.13424 L140.383093,87.4731733 L134.722027,87.4731733 L134.722027,93.13424 Z M126.796533,93.13424 L132.455707,93.13424 L132.455707,87.4731733 L126.796533,87.4731733 L126.796533,93.13424 Z M118.87104,93.13424 L124.53116,93.13424 L124.53116,87.4731733 L118.87104,87.4731733 L118.87104,93.13424 Z M110.946493,93.13424 L116.60756,93.13424 L116.60756,87.4731733 L110.946493,87.4731733 L110.946493,93.13424 Z M103.020053,93.13424 L108.68112,93.13424 L108.68112,87.4731733 L103.020053,87.4731733 L103.020053,93.13424 Z M95.09456,93.13424 L100.755627,93.13424 L100.755627,87.4731733 L95.09456,87.4731733 L95.09456,93.13424 Z M87.1738,93.13424 L92.83392,93.13424 L92.83392,87.4731733 L87.1738,87.4731733 L87.1738,93.13424 Z M79.2492533,93.13424 L84.91032,93.13424 L84.91032,87.4731733 L79.2492533,87.4731733 L79.2492533,93.13424 Z M71.3228133,93.13424 L76.98388,93.13424 L76.98388,87.4731733 L71.3228133,87.4731733 L71.3228133,93.13424 Z M63.3982667,93.13424 L69.0593333,93.13424 L69.0593333,87.4731733 L63.3982667,87.4731733 L63.3982667,93.13424 Z M427.941613,101.059733 L433.59984,101.059733 L433.59984,95.3986667 L427.941613,95.3986667 L427.941613,101.059733 Z M412.090627,101.059733 L417.751693,101.059733 L417.751693,95.3986667 L412.090627,95.3986667 L412.090627,101.059733 Z M404.165133,101.059733 L409.8262,101.059733 L409.8262,95.3986667 L404.165133,95.3986667 L404.165133,101.059733 Z M396.238693,101.059733 L401.89976,101.059733 L401.89976,95.3986667 L396.238693,95.3986667 L396.238693,101.059733 Z M388.3132,101.059733 L393.974267,101.059733 L393.974267,95.3986667 L388.3132,95.3986667 L388.3132,101.059733 Z M380.387707,101.059733 L386.048773,101.059733 L386.048773,95.3986667 L380.387707,95.3986667 L380.387707,101.059733 Z M372.464107,101.059733 L378.12328,101.059733 L378.12328,95.3986667 L372.464107,95.3986667 L372.464107,101.059733 Z M364.543347,101.059733 L370.204413,101.059733 L370.204413,95.3986667 L364.543347,95.3986667 L364.543347,101.059733 Z M356.617853,101.059733 L362.277973,101.059733 L362.277973,95.3986667 L356.617853,95.3986667 L356.617853,101.059733 Z M348.69236,101.059733 L354.353427,101.059733 L354.353427,95.3986667 L348.69236,95.3986667 L348.69236,101.059733 Z M340.766867,101.059733 L346.427933,101.059733 L346.427933,95.3986667 L340.766867,95.3986667 L340.766867,101.059733 Z M332.841373,101.059733 L338.50244,101.059733 L338.50244,95.3986667 L332.841373,95.3986667 L332.841373,101.059733 Z M324.914933,101.059733 L330.576,101.059733 L330.576,95.3986667 L324.914933,95.3986667 L324.914933,101.059733 Z M316.990387,101.059733 L322.651453,101.059733 L322.651453,95.3986667 L316.990387,95.3986667 L316.990387,101.059733 Z M309.064893,101.059733 L314.72596,101.059733 L314.72596,95.3986667 L309.064893,95.3986667 L309.064893,101.059733 Z M293.21864,101.059733 L298.880653,101.059733 L298.880653,95.3986667 L293.21864,95.3986667 L293.21864,101.059733 Z M285.294093,101.059733 L290.95516,101.059733 L290.95516,95.3986667 L285.294093,95.3986667 L285.294093,101.059733 Z M277.366707,101.059733 L283.02872,101.059733 L283.02872,95.3986667 L277.366707,95.3986667 L277.366707,101.059733 Z M261.517613,101.059733 L267.177733,101.059733 L267.177733,95.3986667 L261.517613,95.3986667 L261.517613,101.059733 Z M253.59212,101.059733 L259.253187,101.059733 L259.253187,95.3986667 L253.59212,95.3986667 L253.59212,101.059733 Z M229.81564,101.059733 L235.476707,101.059733 L235.476707,95.3986667 L229.81564,95.3986667 L229.81564,101.059733 Z M221.896773,101.059733 L227.555947,101.059733 L227.555947,95.3986667 L221.896773,95.3986667 L221.896773,101.059733 Z M126.796533,101.059733 L132.455707,101.059733 L132.455707,95.3986667 L126.796533,95.3986667 L126.796533,101.059733 Z M118.87104,101.059733 L124.53116,101.059733 L124.53116,95.3986667 L118.87104,95.3986667 L118.87104,101.059733 Z M110.946493,101.059733 L116.60756,101.059733 L116.60756,95.3986667 L110.946493,95.3986667 L110.946493,101.059733 Z M103.020053,101.059733 L108.68112,101.059733 L108.68112,95.3986667 L103.020053,95.3986667 L103.020053,101.059733 Z M95.09456,101.059733 L100.755627,101.059733 L100.755627,95.3986667 L95.09456,95.3986667 L95.09456,101.059733 Z M87.1738,101.059733 L92.83392,101.059733 L92.83392,95.3986667 L87.1738,95.3986667 L87.1738,101.059733 Z M79.2492533,101.059733 L84.91032,101.059733 L84.91032,95.3986667 L79.2492533,95.3986667 L79.2492533,101.059733 Z M71.3228133,101.059733 L76.98388,101.059733 L76.98388,95.3986667 L71.3228133,95.3986667 L71.3228133,101.059733 Z M63.3982667,101.059733 L69.0593333,101.059733 L69.0593333,95.3986667 L63.3982667,95.3986667 L63.3982667,101.059733 Z M55.4727733,101.059733 L61.1328933,101.059733 L61.1328933,95.3986667 L55.4727733,95.3986667 L55.4727733,101.059733 Z M396.238693,108.986173 L401.89976,108.986173 L401.89976,103.325107 L396.238693,103.325107 L396.238693,108.986173 Z M388.3132,108.986173 L393.974267,108.986173 L393.974267,103.325107 L388.3132,103.325107 L388.3132,108.986173 Z M380.387707,108.986173 L386.048773,108.986173 L386.048773,103.325107 L380.387707,103.325107 L380.387707,108.986173 Z M372.464107,108.986173 L378.12328,108.986173 L378.12328,103.325107 L372.464107,103.325107 L372.464107,108.986173 Z M364.543347,108.986173 L370.204413,108.986173 L370.204413,103.325107 L364.543347,103.325107 L364.543347,108.986173 Z M356.617853,108.986173 L362.277973,108.986173 L362.277973,103.325107 L356.617853,103.325107 L356.617853,108.986173 Z M348.69236,108.986173 L354.353427,108.986173 L354.353427,103.325107 L348.69236,103.325107 L348.69236,108.986173 Z M340.766867,108.986173 L346.427933,108.986173 L346.427933,103.325107 L340.766867,103.325107 L340.766867,108.986173 Z M332.841373,108.986173 L338.50244,108.986173 L338.50244,103.325107 L332.841373,103.325107 L332.841373,108.986173 Z M324.914933,108.986173 L330.576,108.986173 L330.576,103.325107 L324.914933,103.325107 L324.914933,108.986173 Z M316.990387,108.986173 L322.651453,108.986173 L322.651453,103.325107 L316.990387,103.325107 L316.990387,108.986173 Z M309.064893,108.986173 L314.72596,108.986173 L314.72596,103.325107 L309.064893,103.325107 L309.064893,108.986173 Z M301.140347,108.986173 L306.79952,108.986173 L306.79952,103.325107 L301.140347,103.325107 L301.140347,108.986173 Z M293.21864,108.986173 L298.880653,108.986173 L298.880653,103.325107 L293.21864,103.325107 L293.21864,108.986173 Z M285.294093,108.986173 L290.95516,108.986173 L290.95516,103.325107 L285.294093,103.325107 L285.294093,108.986173 Z M237.74208,108.986173 L243.403147,108.986173 L243.403147,103.325107 L237.74208,103.325107 L237.74208,108.986173 Z M229.81564,108.986173 L235.476707,108.986173 L235.476707,103.325107 L229.81564,103.325107 L229.81564,108.986173 Z M221.896773,108.986173 L227.555947,108.986173 L227.555947,103.325107 L221.896773,103.325107 L221.896773,108.986173 Z M118.87104,108.986173 L124.53116,108.986173 L124.53116,103.325107 L118.87104,103.325107 L118.87104,108.986173 Z M110.946493,108.986173 L116.60756,108.986173 L116.60756,103.325107 L110.946493,103.325107 L110.946493,108.986173 Z M103.020053,108.986173 L108.68112,108.986173 L108.68112,103.325107 L103.020053,103.325107 L103.020053,108.986173 Z M95.09456,108.986173 L100.755627,108.986173 L100.755627,103.325107 L95.09456,103.325107 L95.09456,108.986173 Z M87.1738,108.986173 L92.83392,108.986173 L92.83392,103.325107 L87.1738,103.325107 L87.1738,108.986173 Z M79.2492533,108.986173 L84.91032,108.986173 L84.91032,103.325107 L79.2492533,103.325107 L79.2492533,108.986173 Z M71.3228133,108.986173 L76.98388,108.986173 L76.98388,103.325107 L71.3228133,103.325107 L71.3228133,108.986173 Z M63.3982667,108.986173 L69.0593333,108.986173 L69.0593333,103.325107 L63.3982667,103.325107 L63.3982667,108.986173 Z M396.238693,116.905987 L401.89976,116.905987 L401.89976,111.24492 L396.238693,111.24492 L396.238693,116.905987 Z M388.3132,116.905987 L393.974267,116.905987 L393.974267,111.24492 L388.3132,111.24492 L388.3132,116.905987 Z M380.387707,116.905987 L386.048773,116.905987 L386.048773,111.24492 L380.387707,111.24492 L380.387707,116.905987 Z M372.464107,116.905987 L378.12328,116.905987 L378.12328,111.24492 L372.464107,111.24492 L372.464107,116.905987 Z M364.543347,116.905987 L370.204413,116.905987 L370.204413,111.24492 L364.543347,111.24492 L364.543347,116.905987 Z M356.617853,116.905987 L362.277973,116.905987 L362.277973,111.24492 L356.617853,111.24492 L356.617853,116.905987 Z M348.69236,116.905987 L354.353427,116.905987 L354.353427,111.24492 L348.69236,111.24492 L348.69236,116.905987 Z M340.766867,116.905987 L346.427933,116.905987 L346.427933,111.24492 L340.766867,111.24492 L340.766867,116.905987 Z M332.841373,116.905987 L338.50244,116.905987 L338.50244,111.24492 L332.841373,111.24492 L332.841373,116.905987 Z M324.914933,116.905987 L330.576,116.905987 L330.576,111.24492 L324.914933,111.24492 L324.914933,116.905987 Z M316.990387,116.905987 L322.651453,116.905987 L322.651453,111.24492 L316.990387,111.24492 L316.990387,116.905987 Z M309.064893,116.905987 L314.72596,116.905987 L314.72596,111.24492 L309.064893,111.24492 L309.064893,116.905987 Z M301.140347,116.905987 L306.79952,116.905987 L306.79952,111.24492 L301.140347,111.24492 L301.140347,116.905987 Z M293.21864,116.905987 L298.880653,116.905987 L298.880653,111.24492 L293.21864,111.24492 L293.21864,116.905987 Z M285.294093,116.905987 L290.95516,116.905987 L290.95516,111.24492 L285.294093,111.24492 L285.294093,116.905987 Z M277.366707,116.905987 L283.02872,116.905987 L283.02872,111.24492 L277.366707,111.24492 L277.366707,116.905987 Z M269.443107,116.905987 L275.104173,116.905987 L275.104173,111.24492 L269.443107,111.24492 L269.443107,116.905987 Z M261.517613,116.905987 L267.177733,116.905987 L267.177733,111.24492 L261.517613,111.24492 L261.517613,116.905987 Z M253.59212,116.905987 L259.253187,116.905987 L259.253187,111.24492 L253.59212,111.24492 L253.59212,116.905987 Z M245.666627,116.905987 L251.327693,116.905987 L251.327693,111.24492 L245.666627,111.24492 L245.666627,116.905987 Z M237.74208,116.905987 L243.403147,116.905987 L243.403147,111.24492 L237.74208,111.24492 L237.74208,116.905987 Z M229.81564,116.905987 L235.476707,116.905987 L235.476707,111.24492 L229.81564,111.24492 L229.81564,116.905987 Z M221.896773,116.905987 L227.555947,116.905987 L227.555947,111.24492 L221.896773,111.24492 L221.896773,116.905987 Z M110.946493,116.905987 L116.60756,116.905987 L116.60756,111.24492 L110.946493,111.24492 L110.946493,116.905987 Z M103.020053,116.905987 L108.68112,116.905987 L108.68112,111.24492 L103.020053,111.24492 L103.020053,116.905987 Z M95.09456,116.905987 L100.755627,116.905987 L100.755627,111.24492 L95.09456,111.24492 L95.09456,116.905987 Z M87.1738,116.905987 L92.83392,116.905987 L92.83392,111.24492 L87.1738,111.24492 L87.1738,116.905987 Z M79.2492533,116.905987 L84.91032,116.905987 L84.91032,111.24492 L79.2492533,111.24492 L79.2492533,116.905987 Z M71.3228133,116.905987 L76.98388,116.905987 L76.98388,111.24492 L71.3228133,111.24492 L71.3228133,116.905987 Z M396.238693,124.82864 L401.89976,124.82864 L401.89976,119.169467 L396.238693,119.169467 L396.238693,124.82864 Z M388.3132,124.82864 L393.974267,124.82864 L393.974267,119.169467 L388.3132,119.169467 L388.3132,124.82864 Z M380.387707,124.82864 L386.048773,124.82864 L386.048773,119.169467 L380.387707,119.169467 L380.387707,124.82864 Z M372.464107,124.82864 L378.12328,124.82864 L378.12328,119.169467 L372.464107,119.169467 L372.464107,124.82864 Z M364.543347,124.82864 L370.204413,124.82864 L370.204413,119.169467 L364.543347,119.169467 L364.543347,124.82864 Z M356.617853,124.82864 L362.277973,124.82864 L362.277973,119.169467 L356.617853,119.169467 L356.617853,124.82864 Z M348.69236,124.82864 L354.353427,124.82864 L354.353427,119.169467 L348.69236,119.169467 L348.69236,124.82864 Z M340.766867,124.82864 L346.427933,124.82864 L346.427933,119.169467 L340.766867,119.169467 L340.766867,124.82864 Z M332.841373,124.82864 L338.50244,124.82864 L338.50244,119.169467 L332.841373,119.169467 L332.841373,124.82864 Z M324.914933,124.82864 L330.576,124.82864 L330.576,119.169467 L324.914933,119.169467 L324.914933,124.82864 Z M316.990387,124.82864 L322.651453,124.82864 L322.651453,119.169467 L316.990387,119.169467 L316.990387,124.82864 Z M309.064893,124.82864 L314.72596,124.82864 L314.72596,119.169467 L309.064893,119.169467 L309.064893,124.82864 Z M301.140347,124.82864 L306.79952,124.82864 L306.79952,119.169467 L301.140347,119.169467 L301.140347,124.82864 Z M293.21864,124.82864 L298.880653,124.82864 L298.880653,119.169467 L293.21864,119.169467 L293.21864,124.82864 Z M285.294093,124.82864 L290.95516,124.82864 L290.95516,119.169467 L285.294093,119.169467 L285.294093,124.82864 Z M277.366707,124.82864 L283.02872,124.82864 L283.02872,119.169467 L277.366707,119.169467 L277.366707,124.82864 Z M269.443107,124.82864 L275.104173,124.82864 L275.104173,119.169467 L269.443107,119.169467 L269.443107,124.82864 Z M261.517613,124.82864 L267.177733,124.82864 L267.177733,119.169467 L261.517613,119.169467 L261.517613,124.82864 Z M253.59212,124.82864 L259.253187,124.82864 L259.253187,119.169467 L253.59212,119.169467 L253.59212,124.82864 Z M245.666627,124.82864 L251.327693,124.82864 L251.327693,119.169467 L245.666627,119.169467 L245.666627,124.82864 Z M237.74208,124.82864 L243.403147,124.82864 L243.403147,119.169467 L237.74208,119.169467 L237.74208,124.82864 Z M229.81564,124.82864 L235.476707,124.82864 L235.476707,119.169467 L229.81564,119.169467 L229.81564,124.82864 Z M221.896773,124.82864 L227.555947,124.82864 L227.555947,119.169467 L221.896773,119.169467 L221.896773,124.82864 Z M213.970333,124.82864 L219.6314,124.82864 L219.6314,119.169467 L213.970333,119.169467 L213.970333,124.82864 Z M87.1738,124.82864 L92.83392,124.82864 L92.83392,119.169467 L87.1738,119.169467 L87.1738,124.82864 Z M79.2492533,124.82864 L84.91032,124.82864 L84.91032,119.169467 L79.2492533,119.169467 L79.2492533,124.82864 Z M372.464107,132.756973 L378.12328,132.756973 L378.12328,127.095907 L372.464107,127.095907 L372.464107,132.756973 Z M364.543347,132.756973 L370.204413,132.756973 L370.204413,127.095907 L364.543347,127.095907 L364.543347,132.756973 Z M348.69236,132.756973 L354.353427,132.756973 L354.353427,127.095907 L348.69236,127.095907 L348.69236,132.756973 Z M340.766867,132.756973 L346.427933,132.756973 L346.427933,127.095907 L340.766867,127.095907 L340.766867,132.756973 Z M332.841373,132.756973 L338.50244,132.756973 L338.50244,127.095907 L332.841373,127.095907 L332.841373,132.756973 Z M309.064893,132.756973 L314.72596,132.756973 L314.72596,127.095907 L309.064893,127.095907 L309.064893,132.756973 Z M301.140347,132.756973 L306.79952,132.756973 L306.79952,127.095907 L301.140347,127.095907 L301.140347,132.756973 Z M293.21864,132.756973 L298.880653,132.756973 L298.880653,127.095907 L293.21864,127.095907 L293.21864,132.756973 Z M277.366707,132.756973 L283.02872,132.756973 L283.02872,127.095907 L277.366707,127.095907 L277.366707,132.756973 Z M269.443107,132.756973 L275.104173,132.756973 L275.104173,127.095907 L269.443107,127.095907 L269.443107,132.756973 Z M261.517613,132.756973 L267.177733,132.756973 L267.177733,127.095907 L261.517613,127.095907 L261.517613,132.756973 Z M253.59212,132.756973 L259.253187,132.756973 L259.253187,127.095907 L253.59212,127.095907 L253.59212,132.756973 Z M245.666627,132.756973 L251.327693,132.756973 L251.327693,127.095907 L245.666627,127.095907 L245.666627,132.756973 Z M237.74208,132.756973 L243.403147,132.756973 L243.403147,127.095907 L237.74208,127.095907 L237.74208,132.756973 Z M229.81564,132.756973 L235.476707,132.756973 L235.476707,127.095907 L229.81564,127.095907 L229.81564,132.756973 Z M221.896773,132.756973 L227.555947,132.756973 L227.555947,127.095907 L221.896773,127.095907 L221.896773,132.756973 Z M213.970333,132.756973 L219.6314,132.756973 L219.6314,127.095907 L213.970333,127.095907 L213.970333,132.756973 Z M103.020053,132.756973 L108.68112,132.756973 L108.68112,127.095907 L103.020053,127.095907 L103.020053,132.756973 Z M87.1738,132.756973 L92.83392,132.756973 L92.83392,127.095907 L87.1738,127.095907 L87.1738,132.756973 Z M380.387707,140.680573 L386.048773,140.680573 L386.048773,135.019507 L380.387707,135.019507 L380.387707,140.680573 Z M372.464107,140.680573 L378.12328,140.680573 L378.12328,135.019507 L372.464107,135.019507 L372.464107,140.680573 Z M340.766867,140.680573 L346.427933,140.680573 L346.427933,135.019507 L340.766867,135.019507 L340.766867,140.680573 Z M293.21864,140.680573 L298.880653,140.680573 L298.880653,135.019507 L293.21864,135.019507 L293.21864,140.680573 Z M285.294093,140.680573 L290.95516,140.680573 L290.95516,135.019507 L285.294093,135.019507 L285.294093,140.680573 Z M277.366707,140.680573 L283.02872,140.680573 L283.02872,135.019507 L277.366707,135.019507 L277.366707,140.680573 Z M269.443107,140.680573 L275.104173,140.680573 L275.104173,135.019507 L269.443107,135.019507 L269.443107,140.680573 Z M261.517613,140.680573 L267.177733,140.680573 L267.177733,135.019507 L261.517613,135.019507 L261.517613,140.680573 Z M253.59212,140.680573 L259.253187,140.680573 L259.253187,135.019507 L253.59212,135.019507 L253.59212,140.680573 Z M245.666627,140.680573 L251.327693,140.680573 L251.327693,135.019507 L245.666627,135.019507 L245.666627,140.680573 Z M237.74208,140.680573 L243.403147,140.680573 L243.403147,135.019507 L237.74208,135.019507 L237.74208,140.680573 Z M229.81564,140.680573 L235.476707,140.680573 L235.476707,135.019507 L229.81564,135.019507 L229.81564,140.680573 Z M221.896773,140.680573 L227.555947,140.680573 L227.555947,135.019507 L221.896773,135.019507 L221.896773,140.680573 Z M213.970333,140.680573 L219.6314,140.680573 L219.6314,135.019507 L213.970333,135.019507 L213.970333,140.680573 Z M206.04484,140.680573 L211.70496,140.680573 L211.70496,135.019507 L206.04484,135.019507 L206.04484,140.680573 Z M110.946493,140.680573 L116.60756,140.680573 L116.60756,135.019507 L110.946493,135.019507 L110.946493,140.680573 Z M103.020053,140.680573 L108.68112,140.680573 L108.68112,135.019507 L103.020053,135.019507 L103.020053,140.680573 Z M340.766867,148.607013 L346.427933,148.607013 L346.427933,142.945 L340.766867,142.945 L340.766867,148.607013 Z M301.140347,148.607013 L306.79952,148.607013 L306.79952,142.945 L301.140347,142.945 L301.140347,148.607013 Z M293.21864,148.607013 L298.880653,148.607013 L298.880653,142.945 L293.21864,142.945 L293.21864,148.607013 Z M285.294093,148.607013 L290.95516,148.607013 L290.95516,142.945 L285.294093,142.945 L285.294093,148.607013 Z M277.366707,148.607013 L283.02872,148.607013 L283.02872,142.945 L277.366707,142.945 L277.366707,148.607013 Z M269.443107,148.607013 L275.104173,148.607013 L275.104173,142.945 L269.443107,142.945 L269.443107,148.607013 Z M261.517613,148.607013 L267.177733,148.607013 L267.177733,142.945 L261.517613,142.945 L261.517613,148.607013 Z M253.59212,148.607013 L259.253187,148.607013 L259.253187,142.945 L253.59212,142.945 L253.59212,148.607013 Z M245.666627,148.607013 L251.327693,148.607013 L251.327693,142.945 L245.666627,142.945 L245.666627,148.607013 Z M237.74208,148.607013 L243.403147,148.607013 L243.403147,142.945 L237.74208,142.945 L237.74208,148.607013 Z M229.81564,148.607013 L235.476707,148.607013 L235.476707,142.945 L229.81564,142.945 L229.81564,148.607013 Z M221.896773,148.607013 L227.555947,148.607013 L227.555947,142.945 L221.896773,142.945 L221.896773,148.607013 Z M213.970333,148.607013 L219.6314,148.607013 L219.6314,142.945 L213.970333,142.945 L213.970333,148.607013 Z M142.646573,148.607013 L148.30764,148.607013 L148.30764,142.945 L142.646573,142.945 L142.646573,148.607013 Z M134.722027,148.607013 L140.383093,148.607013 L140.383093,142.945 L134.722027,142.945 L134.722027,148.607013 Z M126.796533,148.607013 L132.455707,148.607013 L132.455707,142.945 L126.796533,142.945 L126.796533,148.607013 Z M118.87104,148.607013 L124.53116,148.607013 L124.53116,142.945 L118.87104,142.945 L118.87104,148.607013 Z M372.464107,156.533453 L378.12328,156.533453 L378.12328,150.872387 L372.464107,150.872387 L372.464107,156.533453 Z M293.21864,156.533453 L298.880653,156.533453 L298.880653,150.872387 L293.21864,150.872387 L293.21864,156.533453 Z M285.294093,156.533453 L290.95516,156.533453 L290.95516,150.872387 L285.294093,150.872387 L285.294093,156.533453 Z M277.366707,156.533453 L283.02872,156.533453 L283.02872,150.872387 L277.366707,150.872387 L277.366707,156.533453 Z M269.443107,156.533453 L275.104173,156.533453 L275.104173,150.872387 L269.443107,150.872387 L269.443107,156.533453 Z M261.517613,156.533453 L267.177733,156.533453 L267.177733,150.872387 L261.517613,150.872387 L261.517613,156.533453 Z M253.59212,156.533453 L259.253187,156.533453 L259.253187,150.872387 L253.59212,150.872387 L253.59212,156.533453 Z M245.666627,156.533453 L251.327693,156.533453 L251.327693,150.872387 L245.666627,150.872387 L245.666627,156.533453 Z M158.498507,156.533453 L164.159573,156.533453 L164.159573,150.872387 L158.498507,150.872387 L158.498507,156.533453 Z M150.57112,156.533453 L156.232187,156.533453 L156.232187,150.872387 L150.57112,150.872387 L150.57112,156.533453 Z M142.646573,156.533453 L148.30764,156.533453 L148.30764,150.872387 L142.646573,150.872387 L142.646573,156.533453 Z M134.722027,156.533453 L140.383093,156.533453 L140.383093,150.872387 L134.722027,150.872387 L134.722027,156.533453 Z M126.796533,156.533453 L132.455707,156.533453 L132.455707,150.872387 L126.796533,150.872387 L126.796533,156.533453 Z M388.3132,164.457053 L393.974267,164.457053 L393.974267,158.795987 L388.3132,158.795987 L388.3132,164.457053 Z M372.464107,164.457053 L378.12328,164.457053 L378.12328,158.795987 L372.464107,158.795987 L372.464107,164.457053 Z M285.294093,164.457053 L290.95516,164.457053 L290.95516,158.795987 L285.294093,158.795987 L285.294093,164.457053 Z M277.366707,164.457053 L283.02872,164.457053 L283.02872,158.795987 L277.366707,158.795987 L277.366707,164.457053 Z M269.443107,164.457053 L275.104173,164.457053 L275.104173,158.795987 L269.443107,158.795987 L269.443107,164.457053 Z M261.517613,164.457053 L267.177733,164.457053 L267.177733,158.795987 L261.517613,158.795987 L261.517613,164.457053 Z M253.59212,164.457053 L259.253187,164.457053 L259.253187,158.795987 L253.59212,158.795987 L253.59212,164.457053 Z M245.666627,164.457053 L251.327693,164.457053 L251.327693,158.795987 L245.666627,158.795987 L245.666627,164.457053 Z M166.417373,164.457053 L172.07844,164.457053 L172.07844,158.795987 L166.417373,158.795987 L166.417373,164.457053 Z M158.498507,164.457053 L164.159573,164.457053 L164.159573,158.795987 L158.498507,158.795987 L158.498507,164.457053 Z M150.57112,164.457053 L156.232187,164.457053 L156.232187,158.795987 L150.57112,158.795987 L150.57112,164.457053 Z M142.646573,164.457053 L148.30764,164.457053 L148.30764,158.795987 L142.646573,158.795987 L142.646573,164.457053 Z M134.722027,164.457053 L140.383093,164.457053 L140.383093,158.795987 L134.722027,158.795987 L134.722027,164.457053 Z M126.796533,164.457053 L132.455707,164.457053 L132.455707,158.795987 L126.796533,158.795987 L126.796533,164.457053 Z M118.87104,164.457053 L124.53116,164.457053 L124.53116,158.795987 L118.87104,158.795987 L118.87104,164.457053 Z M435.867107,172.38444 L441.528173,172.38444 L441.528173,166.72432 L435.867107,166.72432 L435.867107,172.38444 Z M427.941613,172.38444 L433.59984,172.38444 L433.59984,166.72432 L427.941613,166.72432 L427.941613,172.38444 Z M388.3132,172.38444 L393.974267,172.38444 L393.974267,166.72432 L388.3132,166.72432 L388.3132,172.38444 Z M285.294093,172.38444 L290.95516,172.38444 L290.95516,166.72432 L285.294093,166.72432 L285.294093,172.38444 Z M277.366707,172.38444 L283.02872,172.38444 L283.02872,166.72432 L277.366707,166.72432 L277.366707,172.38444 Z M269.443107,172.38444 L275.104173,172.38444 L275.104173,166.72432 L269.443107,166.72432 L269.443107,172.38444 Z M261.517613,172.38444 L267.177733,172.38444 L267.177733,166.72432 L261.517613,166.72432 L261.517613,172.38444 Z M253.59212,172.38444 L259.253187,172.38444 L259.253187,166.72432 L253.59212,166.72432 L253.59212,172.38444 Z M174.342867,172.38444 L180.003933,172.38444 L180.003933,166.72432 L174.342867,166.72432 L174.342867,172.38444 Z M166.417373,172.38444 L172.07844,172.38444 L172.07844,166.72432 L166.417373,166.72432 L166.417373,172.38444 Z M158.498507,172.38444 L164.159573,172.38444 L164.159573,166.72432 L158.498507,166.72432 L158.498507,172.38444 Z M150.57112,172.38444 L156.232187,172.38444 L156.232187,166.72432 L150.57112,166.72432 L150.57112,172.38444 Z M142.646573,172.38444 L148.30764,172.38444 L148.30764,166.72432 L142.646573,166.72432 L142.646573,172.38444 Z M134.722027,172.38444 L140.383093,172.38444 L140.383093,166.72432 L134.722027,166.72432 L134.722027,172.38444 Z M126.796533,172.38444 L132.455707,172.38444 L132.455707,166.72432 L126.796533,166.72432 L126.796533,172.38444 Z M118.87104,172.38444 L124.53116,172.38444 L124.53116,166.72432 L118.87104,166.72432 L118.87104,172.38444 Z M420.015173,180.304253 L425.67624,180.304253 L425.67624,174.643187 L420.015173,174.643187 L420.015173,180.304253 Z M412.090627,180.304253 L417.751693,180.304253 L417.751693,174.643187 L412.090627,174.643187 L412.090627,180.304253 Z M285.294093,180.304253 L290.95516,180.304253 L290.95516,174.643187 L285.294093,174.643187 L285.294093,180.304253 Z M277.366707,180.304253 L283.02872,180.304253 L283.02872,174.643187 L277.366707,174.643187 L277.366707,180.304253 Z M269.443107,180.304253 L275.104173,180.304253 L275.104173,174.643187 L269.443107,174.643187 L269.443107,180.304253 Z M261.517613,180.304253 L267.177733,180.304253 L267.177733,174.643187 L261.517613,174.643187 L261.517613,180.304253 Z M253.59212,180.304253 L259.253187,180.304253 L259.253187,174.643187 L253.59212,174.643187 L253.59212,180.304253 Z M174.342867,180.304253 L180.003933,180.304253 L180.003933,174.643187 L174.342867,174.643187 L174.342867,180.304253 Z M166.417373,180.304253 L172.07844,180.304253 L172.07844,174.643187 L166.417373,174.643187 L166.417373,180.304253 Z M158.498507,180.304253 L164.159573,180.304253 L164.159573,174.643187 L158.498507,174.643187 L158.498507,180.304253 Z M150.57112,180.304253 L156.232187,180.304253 L156.232187,174.643187 L150.57112,174.643187 L150.57112,180.304253 Z M142.646573,180.304253 L148.30764,180.304253 L148.30764,174.643187 L142.646573,174.643187 L142.646573,180.304253 Z M134.722027,180.304253 L140.383093,180.304253 L140.383093,174.643187 L134.722027,174.643187 L134.722027,180.304253 Z M126.796533,180.304253 L132.455707,180.304253 L132.455707,174.643187 L126.796533,174.643187 L126.796533,180.304253 Z M435.867107,188.229747 L441.528173,188.229747 L441.528173,182.569627 L435.867107,182.569627 L435.867107,188.229747 Z M427.941613,188.229747 L433.59984,188.229747 L433.59984,182.569627 L427.941613,182.569627 L427.941613,188.229747 Z M420.015173,188.229747 L425.67624,188.229747 L425.67624,182.569627 L420.015173,182.569627 L420.015173,188.229747 Z M412.090627,188.229747 L417.751693,188.229747 L417.751693,182.569627 L412.090627,182.569627 L412.090627,188.229747 Z M404.165133,188.229747 L409.8262,188.229747 L409.8262,182.569627 L404.165133,182.569627 L404.165133,188.229747 Z M293.21864,188.229747 L298.880653,188.229747 L298.880653,182.569627 L293.21864,182.569627 L293.21864,188.229747 Z M277.366707,188.229747 L283.02872,188.229747 L283.02872,182.569627 L277.366707,182.569627 L277.366707,188.229747 Z M269.443107,188.229747 L275.104173,188.229747 L275.104173,182.569627 L269.443107,182.569627 L269.443107,188.229747 Z M261.517613,188.229747 L267.177733,188.229747 L267.177733,182.569627 L261.517613,182.569627 L261.517613,188.229747 Z M253.59212,188.229747 L259.253187,188.229747 L259.253187,182.569627 L253.59212,182.569627 L253.59212,188.229747 Z M174.342867,188.229747 L180.003933,188.229747 L180.003933,182.569627 L174.342867,182.569627 L174.342867,188.229747 Z M166.417373,188.229747 L172.07844,188.229747 L172.07844,182.569627 L166.417373,182.569627 L166.417373,188.229747 Z M158.498507,188.229747 L164.159573,188.229747 L164.159573,182.569627 L158.498507,182.569627 L158.498507,188.229747 Z M150.57112,188.229747 L156.232187,188.229747 L156.232187,182.569627 L150.57112,182.569627 L150.57112,188.229747 Z M142.646573,188.229747 L148.30764,188.229747 L148.30764,182.569627 L142.646573,182.569627 L142.646573,188.229747 Z M134.722027,188.229747 L140.383093,188.229747 L140.383093,182.569627 L134.722027,182.569627 L134.722027,188.229747 Z M443.78692,196.15524 L449.44704,196.15524 L449.44704,190.49512 L443.78692,190.49512 L443.78692,196.15524 Z M435.867107,196.15524 L441.528173,196.15524 L441.528173,190.49512 L435.867107,190.49512 L435.867107,196.15524 Z M427.941613,196.15524 L433.59984,196.15524 L433.59984,190.49512 L427.941613,190.49512 L427.941613,196.15524 Z M420.015173,196.15524 L425.67624,196.15524 L425.67624,190.49512 L420.015173,190.49512 L420.015173,196.15524 Z M412.090627,196.15524 L417.751693,196.15524 L417.751693,190.49512 L412.090627,190.49512 L412.090627,196.15524 Z M404.165133,196.15524 L409.8262,196.15524 L409.8262,190.49512 L404.165133,190.49512 L404.165133,196.15524 Z M396.238693,196.15524 L401.89976,196.15524 L401.89976,190.49512 L396.238693,190.49512 L396.238693,196.15524 Z M293.21864,196.15524 L298.880653,196.15524 L298.880653,190.49512 L293.21864,190.49512 L293.21864,196.15524 Z M277.366707,196.15524 L283.02872,196.15524 L283.02872,190.49512 L277.366707,190.49512 L277.366707,196.15524 Z M269.443107,196.15524 L275.104173,196.15524 L275.104173,190.49512 L269.443107,190.49512 L269.443107,196.15524 Z M261.517613,196.15524 L267.177733,196.15524 L267.177733,190.49512 L261.517613,190.49512 L261.517613,196.15524 Z M253.59212,196.15524 L259.253187,196.15524 L259.253187,190.49512 L253.59212,190.49512 L253.59212,196.15524 Z M158.498507,196.15524 L164.159573,196.15524 L164.159573,190.49512 L158.498507,190.49512 L158.498507,196.15524 Z M150.57112,196.15524 L156.232187,196.15524 L156.232187,190.49512 L150.57112,190.49512 L150.57112,196.15524 Z M142.646573,196.15524 L148.30764,196.15524 L148.30764,190.49512 L142.646573,190.49512 L142.646573,196.15524 Z M134.722027,196.15524 L140.383093,196.15524 L140.383093,190.49512 L134.722027,190.49512 L134.722027,196.15524 Z M443.78692,204.07884 L449.44704,204.07884 L449.44704,198.419667 L443.78692,198.419667 L443.78692,204.07884 Z M435.867107,204.07884 L441.528173,204.07884 L441.528173,198.419667 L435.867107,198.419667 L435.867107,204.07884 Z M427.941613,204.07884 L433.59984,204.07884 L433.59984,198.419667 L427.941613,198.419667 L427.941613,204.07884 Z M420.015173,204.07884 L425.67624,204.07884 L425.67624,198.419667 L420.015173,198.419667 L420.015173,204.07884 Z M412.090627,204.07884 L417.751693,204.07884 L417.751693,198.419667 L412.090627,198.419667 L412.090627,204.07884 Z M404.165133,204.07884 L409.8262,204.07884 L409.8262,198.419667 L404.165133,198.419667 L404.165133,204.07884 Z M396.238693,204.07884 L401.89976,204.07884 L401.89976,198.419667 L396.238693,198.419667 L396.238693,204.07884 Z M269.443107,204.07884 L275.104173,204.07884 L275.104173,198.419667 L269.443107,198.419667 L269.443107,204.07884 Z M261.517613,204.07884 L267.177733,204.07884 L267.177733,198.419667 L261.517613,198.419667 L261.517613,204.07884 Z M158.498507,204.07884 L164.159573,204.07884 L164.159573,198.419667 L158.498507,198.419667 L158.498507,204.07884 Z M150.57112,204.07884 L156.232187,204.07884 L156.232187,198.419667 L150.57112,198.419667 L150.57112,204.07884 Z M142.646573,204.07884 L148.30764,204.07884 L148.30764,198.419667 L142.646573,198.419667 L142.646573,204.07884 Z M134.722027,204.07884 L140.383093,204.07884 L140.383093,198.419667 L134.722027,198.419667 L134.722027,204.07884 Z M435.867107,212.00528 L441.528173,212.00528 L441.528173,206.344213 L435.867107,206.344213 L435.867107,212.00528 Z M427.941613,212.00528 L433.59984,212.00528 L433.59984,206.344213 L427.941613,206.344213 L427.941613,212.00528 Z M396.238693,212.00528 L401.89976,212.00528 L401.89976,206.344213 L396.238693,206.344213 L396.238693,212.00528 Z M142.646573,212.00528 L148.30764,212.00528 L148.30764,206.344213 L142.646573,206.344213 L142.646573,212.00528 Z M134.722027,212.00528 L140.383093,212.00528 L140.383093,206.344213 L134.722027,206.344213 L134.722027,212.00528 Z M475.487947,219.92888 L481.149013,219.92888 L481.149013,214.270653 L475.487947,214.270653 L475.487947,219.92888 Z M142.646573,219.92888 L148.30764,219.92888 L148.30764,214.270653 L142.646573,214.270653 L142.646573,219.92888 Z M134.722027,219.92888 L140.383093,219.92888 L140.383093,214.270653 L134.722027,214.270653 L134.722027,219.92888 Z M126.796533,219.92888 L132.455707,219.92888 L132.455707,214.270653 L126.796533,214.270653 L126.796533,219.92888 Z M467.5634,227.857213 L473.22352,227.857213 L473.22352,222.196147 L467.5634,222.196147 L467.5634,227.857213 Z M134.722027,227.857213 L140.383093,227.857213 L140.383093,222.196147 L134.722027,222.196147 L134.722027,227.857213 Z M126.796533,227.857213 L132.455707,227.857213 L132.455707,222.196147 L126.796533,222.196147 L126.796533,227.857213 Z M134.722027,235.780813 L140.383093,235.780813 L140.383093,230.119747 L134.722027,230.119747 L134.722027,235.780813 Z M126.796533,235.780813 L132.455707,235.780813 L132.455707,230.119747 L126.796533,230.119747 L126.796533,235.780813 Z M134.722027,243.70252 L140.383093,243.70252 L140.383093,238.041453 L134.722027,238.041453 L134.722027,243.70252 Z M126.796533,243.70252 L132.455707,243.70252 L132.455707,238.041453 L126.796533,238.041453 L126.796533,243.70252 Z" id="Page-1"></path>
                </g>
            </g>
        </g>
    </g>
</svg>